# xmcd
#
# Track frame offsets: 
#        150
#        12370
#        23987
#        37327
#        50185
#        63725
#        77980
#        91392
#        103342
#        117152
#        130260
#        143257
#        156562
#        170215
#        183885
#        196657
#        211852
#        226742
#        238937
#        252547
#        265307
#        279000
#        292325
#
# Disc length: 4073 seconds
#
# Revision: 1
# Processed by: cddbd v1.5.2PL0 Copyright (c) Steve Scherf et al.
# Submitted via: ExactAudioCopy v0.99pb4
#
DISCID=5f0fe717
DTITLE=Lucille Bogan - Complete Recordings Vol. 3: 1934-1935
DYEAR=1993
DGENRE=Blues
TTITLE0=You Got to Die Someday
TTITLE1=Lonesome Midnight Blues
TTITLE2=Boogan Ways Blues
TTITLE3=My Man Is Boogan Me
TTITLE4=Pig Iron Sally
TTITLE5=I Hate That Train Called the M. and O.
TTITLE6=Drinking Blues
TTITLE7=Tired as I Can Be
TTITLE8=Sweet Man, Sweet Man
TTITLE9=Reckless Woman
TTITLE10=Down in Boogie Alley
TTITLE11=Changed Ways Blues
TTITLE12=Bo-Easy Blues
TTITLE13=That's What My Baby Likes
TTITLE14=Shave 'Em Dry [take 1]
TTITLE15=Shave 'Em Dry [alternate take 1]
TTITLE16=Shave 'Em Dry [alternate take 2]
TTITLE17=Barbecue Bess
TTITLE18=B.D. Woman's Blues
TTITLE19=Jump Steady Daddy
TTITLE20=Man Stealer Blues
TTITLE21=Stew Meat Blues
TTITLE22=Skin Game Blues
EXTD=
EXTT0=
EXTT1=
EXTT2=
EXTT3=
EXTT4=
EXTT5=
EXTT6=
EXTT7=
EXTT8=
EXTT9=
EXTT10=
EXTT11=
EXTT12=
EXTT13=
EXTT14=
EXTT15=
EXTT16=
EXTT17=
EXTT18=
EXTT19=
EXTT20=
EXTT21=
EXTT22=
PLAYORDER=
